<svg width="66" height="66" viewBox="0 0 66 66" fill="none" xmlns="http://www.w3.org/2000/svg">
<mask id="mask0_120_313" style="mask-type:alpha" maskUnits="userSpaceOnUse" x="0" y="0" width="66" height="66">
<rect width="66" height="66" fill="#D9D9D9"/>
</mask>
<g mask="url(#mask0_120_313)">
<path d="M16.5 44H35.75V35.75H16.5V44ZM41.25 44H49.5V22H41.25V44ZM16.5 30.25H35.75V22H16.5V30.25ZM11 55C9.4875 55 8.19271 54.4615 7.11563 53.3844C6.03854 52.3073 5.5 51.0125 5.5 49.5V16.5C5.5 14.9875 6.03854 13.6927 7.11563 12.6156C8.19271 11.5385 9.4875 11 11 11H55C56.5125 11 57.8073 11.5385 58.8844 12.6156C59.9615 13.6927 60.5 14.9875 60.5 16.5V49.5C60.5 51.0125 59.9615 52.3073 58.8844 53.3844C57.8073 54.4615 56.5125 55 55 55H11ZM11 49.5H55V16.5H11V49.5Z" fill="white"/>
</g>
</svg>
