<svg width="89" height="89" viewBox="0 0 89 89" fill="none" xmlns="http://www.w3.org/2000/svg">
<circle cx="44.5" cy="44.5" r="43" fill="white" stroke="#FF0000" stroke-width="3"/>
<mask id="mask0_498_827" style="mask-type:alpha" maskUnits="userSpaceOnUse" x="14" y="14" width="62" height="62">
<rect x="14" y="14" width="61.208" height="61.208" fill="#D9D9D9"/>
</mask>
<g mask="url(#mask0_498_827)">
<mask id="path-3-inside-1_498_827" fill="white">
<path d="M30.322 60.1619L29.0469 58.8868L43.3287 44.6049L29.0469 30.323L30.322 29.0479L44.6039 43.3297L58.8858 29.0479L60.1609 30.323L45.8791 44.6049L60.1609 58.8868L58.8858 60.1619L44.6039 45.8801L30.322 60.1619Z"/>
</mask>
<path d="M30.322 60.1619L29.0469 58.8868L43.3287 44.6049L29.0469 30.323L30.322 29.0479L44.6039 43.3297L58.8858 29.0479L60.1609 30.323L45.8791 44.6049L60.1609 58.8868L58.8858 60.1619L44.6039 45.8801L30.322 60.1619Z" fill="#FF0000"/>
<path d="M30.322 60.1619L26.7865 63.6975L30.322 67.233L33.8576 63.6975L30.322 60.1619ZM29.0469 58.8868L25.5113 55.3512L21.9758 58.8868L25.5113 62.4223L29.0469 58.8868ZM43.3287 44.6049L46.8643 48.1404L50.3998 44.6049L46.8643 41.0694L43.3287 44.6049ZM29.0469 30.323L25.5113 26.7875L21.9758 30.323L25.5113 33.8586L29.0469 30.323ZM30.322 29.0479L33.8576 25.5123L30.322 21.9768L26.7865 25.5123L30.322 29.0479ZM44.6039 43.3297L41.0684 46.8653L44.6039 50.4008L48.1394 46.8653L44.6039 43.3297ZM58.8858 29.0479L62.4213 25.5123L58.8858 21.9768L55.3502 25.5123L58.8858 29.0479ZM60.1609 30.323L63.6965 33.8586L67.232 30.323L63.6965 26.7875L60.1609 30.323ZM45.8791 44.6049L42.3435 41.0694L38.808 44.6049L42.3435 48.1404L45.8791 44.6049ZM60.1609 58.8868L63.6965 62.4223L67.232 58.8868L63.6965 55.3512L60.1609 58.8868ZM58.8858 60.1619L55.3502 63.6975L58.8858 67.233L62.4213 63.6975L58.8858 60.1619ZM44.6039 45.8801L48.1394 42.3445L44.6039 38.809L41.0684 42.3445L44.6039 45.8801ZM33.8576 56.6264L32.5824 55.3512L25.5113 62.4223L26.7865 63.6975L33.8576 56.6264ZM32.5824 62.4223L46.8643 48.1404L39.7932 41.0694L25.5113 55.3512L32.5824 62.4223ZM46.8643 41.0694L32.5824 26.7875L25.5113 33.8586L39.7932 48.1404L46.8643 41.0694ZM32.5824 33.8586L33.8576 32.5834L26.7865 25.5123L25.5113 26.7875L32.5824 33.8586ZM26.7865 32.5834L41.0684 46.8653L48.1394 39.7942L33.8576 25.5123L26.7865 32.5834ZM48.1394 46.8653L62.4213 32.5834L55.3502 25.5123L41.0684 39.7942L48.1394 46.8653ZM55.3502 32.5834L56.6254 33.8586L63.6965 26.7875L62.4213 25.5123L55.3502 32.5834ZM56.6254 26.7875L42.3435 41.0694L49.4146 48.1404L63.6965 33.8586L56.6254 26.7875ZM42.3435 48.1404L56.6254 62.4223L63.6965 55.3512L49.4146 41.0694L42.3435 48.1404ZM56.6254 55.3512L55.3502 56.6264L62.4213 63.6975L63.6965 62.4223L56.6254 55.3512ZM62.4213 56.6264L48.1394 42.3445L41.0684 49.4156L55.3502 63.6975L62.4213 56.6264ZM41.0684 42.3445L26.7865 56.6264L33.8576 63.6975L48.1394 49.4156L41.0684 42.3445Z" fill="#FF0000" mask="url(#path-3-inside-1_498_827)"/>
</g>
</svg>
